<svg xmlns="http://www.w3.org/2000/svg" width="1500" height="770" viewBox="0 0 1500 770" role="img">
<title>Three Electric Heating Works site concepts</title>
<desc>Original conceptual site diagram. Proposed dimensions; no game performance or engineering clearances are certified.</desc>
<rect width="100%" height="100%" fill="#f7f4ec"/>
<text x="50" y="56.239999999999995" font-family="Segoe UI,DejaVu Sans,sans-serif" font-size="32" font-weight="700" fill="#243b40">A REPUBLIC-SCALE ELECTRIC HEATING WORKS</text>
<text x="50" y="96.4" font-family="Segoe UI,DejaVu Sans,sans-serif" font-size="20" font-weight="400" fill="#243b40">Three original layout studies. Shared scale; footprints and equipment arrangements remain proposals.</text>
<text x="50" y="164.68" font-family="Segoe UI,DejaVu Sans,sans-serif" font-size="24" font-weight="700" fill="#243b40">A  /  The civic powerhouse</text>
<text x="50" y="198.94" font-family="Segoe UI,DejaVu Sans,sans-serif" font-size="17" font-weight="400" fill="#ad5c45">150 x 112 m  |  RECOMMENDED</text>
<rect x="50.0" y="260.0" width="345.0" height="257.59999999999997" fill="#e9e6dc" stroke="#243b40" stroke-width="1"/>
<rect x="59.2" y="269.2" width="326.59999999999997" height="239.2" fill="#dfe0d8" stroke="#dfe0d8" stroke-width="1"/>
<rect x="73.0" y="283.0" width="299.0" height="211.6" fill="#e9e6dc" stroke="#e9e6dc" stroke-width="1"/>
<rect x="206.39999999999998" y="494.6" width="18.4" height="41.4" fill="#dfe0d8" stroke="#dfe0d8" stroke-width="1"/>
<rect x="77.6" y="287.6" width="216.2" height="85.1" fill="#e9ddbb" stroke="#243b40" stroke-width="1"/>
<polyline points="105.19999999999999,294.5 105.19999999999999,365.8" fill="none" stroke="#243b40" stroke-width="1"/>
<polyline points="96.0,299.1 114.39999999999999,299.1" fill="none" stroke="#243b40" stroke-width="3"/>
<rect x="97.15" y="306.0" width="2.3" height="6.8999999999999995" fill="#d9b45d" stroke="#243b40" stroke-width="1"/>
<rect x="96.69" y="317.5" width="3.2199999999999998" height="6.8999999999999995" fill="#d9b45d" stroke="#243b40" stroke-width="1"/>
<rect x="104.05" y="306.0" width="2.3" height="6.8999999999999995" fill="#d9b45d" stroke="#243b40" stroke-width="1"/>
<rect x="103.59" y="317.5" width="3.2199999999999998" height="6.8999999999999995" fill="#d9b45d" stroke="#243b40" stroke-width="1"/>
<rect x="110.94999999999999" y="306.0" width="2.3" height="6.8999999999999995" fill="#d9b45d" stroke="#243b40" stroke-width="1"/>
<rect x="110.49" y="317.5" width="3.2199999999999998" height="6.8999999999999995" fill="#d9b45d" stroke="#243b40" stroke-width="1"/>
<polyline points="105.19999999999999,248.5 105.19999999999999,294.5" fill="none" stroke="#ad5c45" stroke-width="2"/>
<polyline points="151.2,294.5 151.2,365.8" fill="none" stroke="#243b40" stroke-width="1"/>
<polyline points="142.0,299.1 160.39999999999998,299.1" fill="none" stroke="#243b40" stroke-width="3"/>
<rect x="143.14999999999998" y="306.0" width="2.3" height="6.8999999999999995" fill="#d9b45d" stroke="#243b40" stroke-width="1"/>
<rect x="142.69" y="317.5" width="3.2199999999999998" height="6.8999999999999995" fill="#d9b45d" stroke="#243b40" stroke-width="1"/>
<rect x="150.05" y="306.0" width="2.3" height="6.8999999999999995" fill="#d9b45d" stroke="#243b40" stroke-width="1"/>
<rect x="149.58999999999997" y="317.5" width="3.2199999999999998" height="6.8999999999999995" fill="#d9b45d" stroke="#243b40" stroke-width="1"/>
<rect x="156.95" y="306.0" width="2.3" height="6.8999999999999995" fill="#d9b45d" stroke="#243b40" stroke-width="1"/>
<rect x="156.48999999999998" y="317.5" width="3.2199999999999998" height="6.8999999999999995" fill="#d9b45d" stroke="#243b40" stroke-width="1"/>
<polyline points="151.2,248.5 151.2,294.5" fill="none" stroke="#ad5c45" stroke-width="2"/>
<polyline points="208.7,294.5 208.7,365.8" fill="none" stroke="#243b40" stroke-width="1"/>
<polyline points="199.5,299.1 217.89999999999998,299.1" fill="none" stroke="#243b40" stroke-width="3"/>
<rect x="200.64999999999998" y="306.0" width="2.3" height="6.8999999999999995" fill="#d9b45d" stroke="#243b40" stroke-width="1"/>
<rect x="200.18999999999997" y="317.5" width="3.2199999999999998" height="6.8999999999999995" fill="#d9b45d" stroke="#243b40" stroke-width="1"/>
<rect x="207.54999999999998" y="306.0" width="2.3" height="6.8999999999999995" fill="#d9b45d" stroke="#243b40" stroke-width="1"/>
<rect x="207.08999999999997" y="317.5" width="3.2199999999999998" height="6.8999999999999995" fill="#d9b45d" stroke="#243b40" stroke-width="1"/>
<rect x="214.45" y="306.0" width="2.3" height="6.8999999999999995" fill="#d9b45d" stroke="#243b40" stroke-width="1"/>
<rect x="213.98999999999998" y="317.5" width="3.2199999999999998" height="6.8999999999999995" fill="#d9b45d" stroke="#243b40" stroke-width="1"/>
<rect x="197.2" y="349.7" width="23.0" height="18.4" fill="#d9b45d" stroke="#243b40" stroke-width="1"/>
<polyline points="197.2,352.0 197.2,365.8" fill="none" stroke="#243b40" stroke-width="1"/>
<polyline points="201.79999999999998,352.0 201.79999999999998,365.8" fill="none" stroke="#243b40" stroke-width="1"/>
<polyline points="206.39999999999998,352.0 206.39999999999998,365.8" fill="none" stroke="#243b40" stroke-width="1"/>
<polyline points="211.0,352.0 211.0,365.8" fill="none" stroke="#243b40" stroke-width="1"/>
<polyline points="215.6,352.0 215.6,365.8" fill="none" stroke="#243b40" stroke-width="1"/>
<polyline points="257.0,294.5 257.0,365.8" fill="none" stroke="#243b40" stroke-width="1"/>
<polyline points="247.79999999999998,299.1 266.2,299.1" fill="none" stroke="#243b40" stroke-width="3"/>
<rect x="248.95" y="306.0" width="2.3" height="6.8999999999999995" fill="#d9b45d" stroke="#243b40" stroke-width="1"/>
<rect x="248.48999999999998" y="317.5" width="3.2199999999999998" height="6.8999999999999995" fill="#d9b45d" stroke="#243b40" stroke-width="1"/>
<rect x="255.85" y="306.0" width="2.3" height="6.8999999999999995" fill="#d9b45d" stroke="#243b40" stroke-width="1"/>
<rect x="255.39" y="317.5" width="3.2199999999999998" height="6.8999999999999995" fill="#d9b45d" stroke="#243b40" stroke-width="1"/>
<rect x="262.75" y="306.0" width="2.3" height="6.8999999999999995" fill="#d9b45d" stroke="#243b40" stroke-width="1"/>
<rect x="262.28999999999996" y="317.5" width="3.2199999999999998" height="6.8999999999999995" fill="#d9b45d" stroke="#243b40" stroke-width="1"/>
<rect x="245.49999999999997" y="349.7" width="23.0" height="18.4" fill="#d9b45d" stroke="#243b40" stroke-width="1"/>
<polyline points="245.49999999999997,352.0 245.49999999999997,365.8" fill="none" stroke="#243b40" stroke-width="1"/>
<polyline points="250.1,352.0 250.1,365.8" fill="none" stroke="#243b40" stroke-width="1"/>
<polyline points="254.7,352.0 254.7,365.8" fill="none" stroke="#243b40" stroke-width="1"/>
<polyline points="259.29999999999995,352.0 259.29999999999995,365.8" fill="none" stroke="#243b40" stroke-width="1"/>
<polyline points="263.9,352.0 263.9,365.8" fill="none" stroke="#243b40" stroke-width="1"/>
<polyline points="86.8,329.0 284.6,329.0" fill="none" stroke="#ad5c45" stroke-width="2"/>
<polyline points="86.8,333.6 284.6,333.6" fill="none" stroke="#ad5c45" stroke-width="2"/>
<rect x="303.0" y="335.9" width="57.49999999999999" height="29.9" fill="#c9d1ce" stroke="#243b40" stroke-width="1"/>
<polyline points="270.79999999999995,372.7 270.79999999999995,388.79999999999995 238.6,388.79999999999995 238.6,400.29999999999995" fill="none" stroke="#ad5c45" stroke-width="3"/>
<rect x="77.6" y="400.29999999999995" width="179.39999999999998" height="69.0" fill="#c9d1ce" stroke="#243b40" stroke-width="1"/>
<polyline points="91.4,400.29999999999995 91.4,469.29999999999995" fill="none" stroke="#92a3a2" stroke-width="1"/>
<polyline points="105.19999999999999,400.29999999999995 105.19999999999999,469.29999999999995" fill="none" stroke="#92a3a2" stroke-width="1"/>
<polyline points="119.0,400.29999999999995 119.0,469.29999999999995" fill="none" stroke="#92a3a2" stroke-width="1"/>
<polyline points="132.8,400.29999999999995 132.8,469.29999999999995" fill="none" stroke="#92a3a2" stroke-width="1"/>
<polyline points="146.6,400.29999999999995 146.6,469.29999999999995" fill="none" stroke="#92a3a2" stroke-width="1"/>
<polyline points="160.39999999999998,400.29999999999995 160.39999999999998,469.29999999999995" fill="none" stroke="#92a3a2" stroke-width="1"/>
<polyline points="174.2,400.29999999999995 174.2,469.29999999999995" fill="none" stroke="#92a3a2" stroke-width="1"/>
<polyline points="188.0,400.29999999999995 188.0,469.29999999999995" fill="none" stroke="#92a3a2" stroke-width="1"/>
<polyline points="201.79999999999998,400.29999999999995 201.79999999999998,469.29999999999995" fill="none" stroke="#92a3a2" stroke-width="1"/>
<polyline points="215.6,400.29999999999995 215.6,469.29999999999995" fill="none" stroke="#92a3a2" stroke-width="1"/>
<polyline points="229.39999999999998,400.29999999999995 229.39999999999998,469.29999999999995" fill="none" stroke="#92a3a2" stroke-width="1"/>
<polyline points="243.2,400.29999999999995 243.2,469.29999999999995" fill="none" stroke="#92a3a2" stroke-width="1"/>
<rect x="86.8" y="427.9" width="161.0" height="13.799999999999999" fill="#8ca5a6" stroke="#243b40" stroke-width="1"/>
<rect x="77.6" y="473.9" width="96.6" height="23.0" fill="#c9d1ce" stroke="#243b40" stroke-width="1"/>
<circle cx="323.7" cy="421.0" r="20.7" fill="#9bc5be" stroke="#243b40" stroke-width="1"/>
<circle cx="323.7" cy="421.0" r="17.25" fill="#9bc5be" stroke="#243b40" stroke-width="1"/>
<polyline points="257.0,434.79999999999995 296.1,434.79999999999995 296.1,421.0 303.0,421.0" fill="none" stroke="#408b82" stroke-width="3"/>
<circle cx="323.7" cy="476.2" r="20.7" fill="#9bc5be" stroke="#243b40" stroke-width="1"/>
<circle cx="323.7" cy="476.2" r="17.25" fill="#9bc5be" stroke="#243b40" stroke-width="1"/>
<polyline points="257.0,434.79999999999995 296.1,434.79999999999995 296.1,476.2 303.0,476.2" fill="none" stroke="#408b82" stroke-width="3"/>
<polyline points="257.0,434.79999999999995 296.1,434.79999999999995 296.1,448.6 406.5,448.6" fill="none" stroke="#408b82" stroke-width="2"/>
<polyline points="257.0,439.4 296.1,439.4 296.1,453.2 406.5,453.2" fill="none" stroke="#408b82" stroke-width="2"/>
<text x="50" y="624.76" font-family="Segoe UI,DejaVu Sans,sans-serif" font-size="18" font-weight="400" fill="#243b40">A broad switchyard fronts the hall.</text>
<text x="50" y="654.76" font-family="Segoe UI,DejaVu Sans,sans-serif" font-size="18" font-weight="400" fill="#243b40">Strong public-works silhouette.</text>
<text x="540" y="164.68" font-family="Segoe UI,DejaVu Sans,sans-serif" font-size="24" font-weight="700" fill="#243b40">B  /  The linear works</text>
<text x="540" y="198.94" font-family="Segoe UI,DejaVu Sans,sans-serif" font-size="17" font-weight="400" fill="#ad5c45">180 x 90 m</text>
<rect x="540.0" y="260.0" width="413.99999999999994" height="206.99999999999997" fill="#e9e6dc" stroke="#243b40" stroke-width="1"/>
<rect x="549.2" y="269.2" width="395.59999999999997" height="188.6" fill="#dfe0d8" stroke="#dfe0d8" stroke-width="1"/>
<rect x="563.0" y="283.0" width="368.0" height="161.0" fill="#e9e6dc" stroke="#e9e6dc" stroke-width="1"/>
<rect x="806.8" y="444.0" width="18.4" height="41.4" fill="#dfe0d8" stroke="#dfe0d8" stroke-width="1"/>
<rect x="567.6" y="287.6" width="229.99999999999997" height="75.89999999999999" fill="#e9ddbb" stroke="#243b40" stroke-width="1"/>
<polyline points="595.2,294.5 595.2,356.6" fill="none" stroke="#243b40" stroke-width="1"/>
<polyline points="586.0,299.1 604.4,299.1" fill="none" stroke="#243b40" stroke-width="3"/>
<rect x="587.15" y="306.0" width="2.3" height="6.8999999999999995" fill="#d9b45d" stroke="#243b40" stroke-width="1"/>
<rect x="586.69" y="317.5" width="3.2199999999999998" height="6.8999999999999995" fill="#d9b45d" stroke="#243b40" stroke-width="1"/>
<rect x="594.05" y="306.0" width="2.3" height="6.8999999999999995" fill="#d9b45d" stroke="#243b40" stroke-width="1"/>
<rect x="593.59" y="317.5" width="3.2199999999999998" height="6.8999999999999995" fill="#d9b45d" stroke="#243b40" stroke-width="1"/>
<rect x="600.95" y="306.0" width="2.3" height="6.8999999999999995" fill="#d9b45d" stroke="#243b40" stroke-width="1"/>
<rect x="600.49" y="317.5" width="3.2199999999999998" height="6.8999999999999995" fill="#d9b45d" stroke="#243b40" stroke-width="1"/>
<polyline points="595.2,248.5 595.2,294.5" fill="none" stroke="#ad5c45" stroke-width="2"/>
<polyline points="641.2,294.5 641.2,356.6" fill="none" stroke="#243b40" stroke-width="1"/>
<polyline points="632.0,299.1 650.4,299.1" fill="none" stroke="#243b40" stroke-width="3"/>
<rect x="633.15" y="306.0" width="2.3" height="6.8999999999999995" fill="#d9b45d" stroke="#243b40" stroke-width="1"/>
<rect x="632.6899999999999" y="317.5" width="3.2199999999999998" height="6.8999999999999995" fill="#d9b45d" stroke="#243b40" stroke-width="1"/>
<rect x="640.05" y="306.0" width="2.3" height="6.8999999999999995" fill="#d9b45d" stroke="#243b40" stroke-width="1"/>
<rect x="639.59" y="317.5" width="3.2199999999999998" height="6.8999999999999995" fill="#d9b45d" stroke="#243b40" stroke-width="1"/>
<rect x="646.95" y="306.0" width="2.3" height="6.8999999999999995" fill="#d9b45d" stroke="#243b40" stroke-width="1"/>
<rect x="646.49" y="317.5" width="3.2199999999999998" height="6.8999999999999995" fill="#d9b45d" stroke="#243b40" stroke-width="1"/>
<polyline points="641.2,248.5 641.2,294.5" fill="none" stroke="#ad5c45" stroke-width="2"/>
<polyline points="698.7,294.5 698.7,356.6" fill="none" stroke="#243b40" stroke-width="1"/>
<polyline points="689.5,299.1 707.9,299.1" fill="none" stroke="#243b40" stroke-width="3"/>
<rect x="690.65" y="306.0" width="2.3" height="6.8999999999999995" fill="#d9b45d" stroke="#243b40" stroke-width="1"/>
<rect x="690.1899999999999" y="317.5" width="3.2199999999999998" height="6.8999999999999995" fill="#d9b45d" stroke="#243b40" stroke-width="1"/>
<rect x="697.55" y="306.0" width="2.3" height="6.8999999999999995" fill="#d9b45d" stroke="#243b40" stroke-width="1"/>
<rect x="697.0899999999999" y="317.5" width="3.2199999999999998" height="6.8999999999999995" fill="#d9b45d" stroke="#243b40" stroke-width="1"/>
<rect x="704.45" y="306.0" width="2.3" height="6.8999999999999995" fill="#d9b45d" stroke="#243b40" stroke-width="1"/>
<rect x="703.99" y="317.5" width="3.2199999999999998" height="6.8999999999999995" fill="#d9b45d" stroke="#243b40" stroke-width="1"/>
<rect x="687.2" y="340.5" width="23.0" height="18.4" fill="#d9b45d" stroke="#243b40" stroke-width="1"/>
<polyline points="687.2,342.8 687.2,356.6" fill="none" stroke="#243b40" stroke-width="1"/>
<polyline points="691.8,342.8 691.8,356.6" fill="none" stroke="#243b40" stroke-width="1"/>
<polyline points="696.4,342.8 696.4,356.6" fill="none" stroke="#243b40" stroke-width="1"/>
<polyline points="701.0,342.8 701.0,356.6" fill="none" stroke="#243b40" stroke-width="1"/>
<polyline points="705.6,342.8 705.6,356.6" fill="none" stroke="#243b40" stroke-width="1"/>
<polyline points="747.0,294.5 747.0,356.6" fill="none" stroke="#243b40" stroke-width="1"/>
<polyline points="737.8,299.1 756.2,299.1" fill="none" stroke="#243b40" stroke-width="3"/>
<rect x="738.95" y="306.0" width="2.3" height="6.8999999999999995" fill="#d9b45d" stroke="#243b40" stroke-width="1"/>
<rect x="738.49" y="317.5" width="3.2199999999999998" height="6.8999999999999995" fill="#d9b45d" stroke="#243b40" stroke-width="1"/>
<rect x="745.85" y="306.0" width="2.3" height="6.8999999999999995" fill="#d9b45d" stroke="#243b40" stroke-width="1"/>
<rect x="745.39" y="317.5" width="3.2199999999999998" height="6.8999999999999995" fill="#d9b45d" stroke="#243b40" stroke-width="1"/>
<rect x="752.75" y="306.0" width="2.3" height="6.8999999999999995" fill="#d9b45d" stroke="#243b40" stroke-width="1"/>
<rect x="752.29" y="317.5" width="3.2199999999999998" height="6.8999999999999995" fill="#d9b45d" stroke="#243b40" stroke-width="1"/>
<rect x="735.5" y="340.5" width="23.0" height="18.4" fill="#d9b45d" stroke="#243b40" stroke-width="1"/>
<polyline points="735.5,342.8 735.5,356.6" fill="none" stroke="#243b40" stroke-width="1"/>
<polyline points="740.1,342.8 740.1,356.6" fill="none" stroke="#243b40" stroke-width="1"/>
<polyline points="744.7,342.8 744.7,356.6" fill="none" stroke="#243b40" stroke-width="1"/>
<polyline points="749.3,342.8 749.3,356.6" fill="none" stroke="#243b40" stroke-width="1"/>
<polyline points="753.9,342.8 753.9,356.6" fill="none" stroke="#243b40" stroke-width="1"/>
<polyline points="576.8,329.0 788.4,329.0" fill="none" stroke="#ad5c45" stroke-width="2"/>
<polyline points="576.8,333.6 788.4,333.6" fill="none" stroke="#ad5c45" stroke-width="2"/>
<rect x="806.8" y="287.6" width="41.4" height="36.8" fill="#c9d1ce" stroke="#243b40" stroke-width="1"/>
<polyline points="774.6,363.5 774.6,372.7 756.2,372.7 756.2,384.2" fill="none" stroke="#ad5c45" stroke-width="3"/>
<rect x="567.6" y="384.2" width="206.99999999999997" height="55.199999999999996" fill="#c9d1ce" stroke="#243b40" stroke-width="1"/>
<polyline points="581.4,384.2 581.4,439.4" fill="none" stroke="#92a3a2" stroke-width="1"/>
<polyline points="595.2,384.2 595.2,439.4" fill="none" stroke="#92a3a2" stroke-width="1"/>
<polyline points="609.0,384.2 609.0,439.4" fill="none" stroke="#92a3a2" stroke-width="1"/>
<polyline points="622.8,384.2 622.8,439.4" fill="none" stroke="#92a3a2" stroke-width="1"/>
<polyline points="636.6,384.2 636.6,439.4" fill="none" stroke="#92a3a2" stroke-width="1"/>
<polyline points="650.4,384.2 650.4,439.4" fill="none" stroke="#92a3a2" stroke-width="1"/>
<polyline points="664.2,384.2 664.2,439.4" fill="none" stroke="#92a3a2" stroke-width="1"/>
<polyline points="678.0,384.2 678.0,439.4" fill="none" stroke="#92a3a2" stroke-width="1"/>
<polyline points="691.8,384.2 691.8,439.4" fill="none" stroke="#92a3a2" stroke-width="1"/>
<polyline points="705.6,384.2 705.6,439.4" fill="none" stroke="#92a3a2" stroke-width="1"/>
<polyline points="719.4,384.2 719.4,439.4" fill="none" stroke="#92a3a2" stroke-width="1"/>
<polyline points="733.2,384.2 733.2,439.4" fill="none" stroke="#92a3a2" stroke-width="1"/>
<polyline points="747.0,384.2 747.0,439.4" fill="none" stroke="#92a3a2" stroke-width="1"/>
<polyline points="760.8,384.2 760.8,439.4" fill="none" stroke="#92a3a2" stroke-width="1"/>
<rect x="576.8" y="406.28" width="188.6" height="11.040000000000001" fill="#8ca5a6" stroke="#243b40" stroke-width="1"/>
<rect x="793.0" y="395.7" width="52.9" height="41.4" fill="#c9d1ce" stroke="#243b40" stroke-width="1"/>
<circle cx="885.0" cy="319.8" r="20.7" fill="#9bc5be" stroke="#243b40" stroke-width="1"/>
<circle cx="885.0" cy="319.8" r="17.25" fill="#9bc5be" stroke="#243b40" stroke-width="1"/>
<polyline points="774.6,411.79999999999995 857.4,411.79999999999995 857.4,319.8 864.3,319.8" fill="none" stroke="#408b82" stroke-width="3"/>
<circle cx="885.0" cy="400.29999999999995" r="20.7" fill="#9bc5be" stroke="#243b40" stroke-width="1"/>
<circle cx="885.0" cy="400.29999999999995" r="17.25" fill="#9bc5be" stroke="#243b40" stroke-width="1"/>
<polyline points="774.6,411.79999999999995 857.4,411.79999999999995 857.4,400.29999999999995 864.3,400.29999999999995" fill="none" stroke="#408b82" stroke-width="3"/>
<polyline points="774.6,411.79999999999995 857.4,411.79999999999995 857.4,360.05 965.5,360.05" fill="none" stroke="#408b82" stroke-width="2"/>
<polyline points="774.6,416.4 857.4,416.4 857.4,364.65 965.5,364.65" fill="none" stroke="#408b82" stroke-width="2"/>
<text x="540" y="624.76" font-family="Segoe UI,DejaVu Sans,sans-serif" font-size="18" font-weight="400" fill="#243b40">Long hall and parallel electrical yard.</text>
<text x="540" y="654.76" font-family="Segoe UI,DejaVu Sans,sans-serif" font-size="18" font-weight="400" fill="#243b40">Clear expansion direction.</text>
<text x="1030" y="164.68" font-family="Segoe UI,DejaVu Sans,sans-serif" font-size="24" font-weight="700" fill="#243b40">C  /  The paired campus</text>
<text x="1030" y="198.94" font-family="Segoe UI,DejaVu Sans,sans-serif" font-size="17" font-weight="400" fill="#ad5c45">168 x 120 m</text>
<rect x="1030.0" y="260.0" width="386.4" height="276.0" fill="#e9e6dc" stroke="#243b40" stroke-width="1"/>
<rect x="1039.2" y="269.2" width="368.0" height="257.59999999999997" fill="#dfe0d8" stroke="#dfe0d8" stroke-width="1"/>
<rect x="1053.0" y="283.0" width="340.4" height="229.99999999999997" fill="#e9e6dc" stroke="#e9e6dc" stroke-width="1"/>
<rect x="1193.3" y="513.0" width="18.4" height="41.4" fill="#dfe0d8" stroke="#dfe0d8" stroke-width="1"/>
<rect x="1053.0" y="283.0" width="229.99999999999997" height="85.1" fill="#e9ddbb" stroke="#243b40" stroke-width="1"/>
<polyline points="1080.6,289.9 1080.6,361.2" fill="none" stroke="#243b40" stroke-width="1"/>
<polyline points="1071.4,294.5 1089.8,294.5" fill="none" stroke="#243b40" stroke-width="3"/>
<rect x="1072.55" y="301.4" width="2.3" height="6.8999999999999995" fill="#d9b45d" stroke="#243b40" stroke-width="1"/>
<rect x="1072.09" y="312.9" width="3.2199999999999998" height="6.8999999999999995" fill="#d9b45d" stroke="#243b40" stroke-width="1"/>
<rect x="1079.45" y="301.4" width="2.3" height="6.8999999999999995" fill="#d9b45d" stroke="#243b40" stroke-width="1"/>
<rect x="1078.99" y="312.9" width="3.2199999999999998" height="6.8999999999999995" fill="#d9b45d" stroke="#243b40" stroke-width="1"/>
<rect x="1086.35" y="301.4" width="2.3" height="6.8999999999999995" fill="#d9b45d" stroke="#243b40" stroke-width="1"/>
<rect x="1085.89" y="312.9" width="3.2199999999999998" height="6.8999999999999995" fill="#d9b45d" stroke="#243b40" stroke-width="1"/>
<polyline points="1080.6,248.5 1080.6,289.9" fill="none" stroke="#ad5c45" stroke-width="2"/>
<polyline points="1126.6,289.9 1126.6,361.2" fill="none" stroke="#243b40" stroke-width="1"/>
<polyline points="1117.4,294.5 1135.8,294.5" fill="none" stroke="#243b40" stroke-width="3"/>
<rect x="1118.55" y="301.4" width="2.3" height="6.8999999999999995" fill="#d9b45d" stroke="#243b40" stroke-width="1"/>
<rect x="1118.09" y="312.9" width="3.2199999999999998" height="6.8999999999999995" fill="#d9b45d" stroke="#243b40" stroke-width="1"/>
<rect x="1125.45" y="301.4" width="2.3" height="6.8999999999999995" fill="#d9b45d" stroke="#243b40" stroke-width="1"/>
<rect x="1124.99" y="312.9" width="3.2199999999999998" height="6.8999999999999995" fill="#d9b45d" stroke="#243b40" stroke-width="1"/>
<rect x="1132.35" y="301.4" width="2.3" height="6.8999999999999995" fill="#d9b45d" stroke="#243b40" stroke-width="1"/>
<rect x="1131.8899999999999" y="312.9" width="3.2199999999999998" height="6.8999999999999995" fill="#d9b45d" stroke="#243b40" stroke-width="1"/>
<polyline points="1126.6,248.5 1126.6,289.9" fill="none" stroke="#ad5c45" stroke-width="2"/>
<polyline points="1184.1,289.9 1184.1,361.2" fill="none" stroke="#243b40" stroke-width="1"/>
<polyline points="1174.9,294.5 1193.3,294.5" fill="none" stroke="#243b40" stroke-width="3"/>
<rect x="1176.05" y="301.4" width="2.3" height="6.8999999999999995" fill="#d9b45d" stroke="#243b40" stroke-width="1"/>
<rect x="1175.59" y="312.9" width="3.2199999999999998" height="6.8999999999999995" fill="#d9b45d" stroke="#243b40" stroke-width="1"/>
<rect x="1182.95" y="301.4" width="2.3" height="6.8999999999999995" fill="#d9b45d" stroke="#243b40" stroke-width="1"/>
<rect x="1182.49" y="312.9" width="3.2199999999999998" height="6.8999999999999995" fill="#d9b45d" stroke="#243b40" stroke-width="1"/>
<rect x="1189.85" y="301.4" width="2.3" height="6.8999999999999995" fill="#d9b45d" stroke="#243b40" stroke-width="1"/>
<rect x="1189.3899999999999" y="312.9" width="3.2199999999999998" height="6.8999999999999995" fill="#d9b45d" stroke="#243b40" stroke-width="1"/>
<rect x="1172.6" y="345.1" width="23.0" height="18.4" fill="#d9b45d" stroke="#243b40" stroke-width="1"/>
<polyline points="1172.6,347.4 1172.6,361.2" fill="none" stroke="#243b40" stroke-width="1"/>
<polyline points="1177.2,347.4 1177.2,361.2" fill="none" stroke="#243b40" stroke-width="1"/>
<polyline points="1181.8,347.4 1181.8,361.2" fill="none" stroke="#243b40" stroke-width="1"/>
<polyline points="1186.4,347.4 1186.4,361.2" fill="none" stroke="#243b40" stroke-width="1"/>
<polyline points="1191.0,347.4 1191.0,361.2" fill="none" stroke="#243b40" stroke-width="1"/>
<polyline points="1232.4,289.9 1232.4,361.2" fill="none" stroke="#243b40" stroke-width="1"/>
<polyline points="1223.2,294.5 1241.6,294.5" fill="none" stroke="#243b40" stroke-width="3"/>
<rect x="1224.35" y="301.4" width="2.3" height="6.8999999999999995" fill="#d9b45d" stroke="#243b40" stroke-width="1"/>
<rect x="1223.8899999999999" y="312.9" width="3.2199999999999998" height="6.8999999999999995" fill="#d9b45d" stroke="#243b40" stroke-width="1"/>
<rect x="1231.25" y="301.4" width="2.3" height="6.8999999999999995" fill="#d9b45d" stroke="#243b40" stroke-width="1"/>
<rect x="1230.79" y="312.9" width="3.2199999999999998" height="6.8999999999999995" fill="#d9b45d" stroke="#243b40" stroke-width="1"/>
<rect x="1238.15" y="301.4" width="2.3" height="6.8999999999999995" fill="#d9b45d" stroke="#243b40" stroke-width="1"/>
<rect x="1237.69" y="312.9" width="3.2199999999999998" height="6.8999999999999995" fill="#d9b45d" stroke="#243b40" stroke-width="1"/>
<rect x="1220.9" y="345.1" width="23.0" height="18.4" fill="#d9b45d" stroke="#243b40" stroke-width="1"/>
<polyline points="1220.9,347.4 1220.9,361.2" fill="none" stroke="#243b40" stroke-width="1"/>
<polyline points="1225.5,347.4 1225.5,361.2" fill="none" stroke="#243b40" stroke-width="1"/>
<polyline points="1230.1,347.4 1230.1,361.2" fill="none" stroke="#243b40" stroke-width="1"/>
<polyline points="1234.7,347.4 1234.7,361.2" fill="none" stroke="#243b40" stroke-width="1"/>
<polyline points="1239.3,347.4 1239.3,361.2" fill="none" stroke="#243b40" stroke-width="1"/>
<polyline points="1062.2,324.4 1273.8,324.4" fill="none" stroke="#ad5c45" stroke-width="2"/>
<polyline points="1062.2,329.0 1273.8,329.0" fill="none" stroke="#ad5c45" stroke-width="2"/>
<rect x="1303.7" y="308.3" width="73.6" height="39.099999999999994" fill="#c9d1ce" stroke="#243b40" stroke-width="1"/>
<polyline points="1260.0,368.1 1260.0,398.0 1232.4,398.0 1232.4,409.5" fill="none" stroke="#ad5c45" stroke-width="3"/>
<rect x="1057.6" y="409.5" width="193.2" height="69.0" fill="#c9d1ce" stroke="#243b40" stroke-width="1"/>
<polyline points="1071.4,409.5 1071.4,478.5" fill="none" stroke="#92a3a2" stroke-width="1"/>
<polyline points="1085.2,409.5 1085.2,478.5" fill="none" stroke="#92a3a2" stroke-width="1"/>
<polyline points="1099.0,409.5 1099.0,478.5" fill="none" stroke="#92a3a2" stroke-width="1"/>
<polyline points="1112.8,409.5 1112.8,478.5" fill="none" stroke="#92a3a2" stroke-width="1"/>
<polyline points="1126.6,409.5 1126.6,478.5" fill="none" stroke="#92a3a2" stroke-width="1"/>
<polyline points="1140.4,409.5 1140.4,478.5" fill="none" stroke="#92a3a2" stroke-width="1"/>
<polyline points="1154.2,409.5 1154.2,478.5" fill="none" stroke="#92a3a2" stroke-width="1"/>
<polyline points="1168.0,409.5 1168.0,478.5" fill="none" stroke="#92a3a2" stroke-width="1"/>
<polyline points="1181.8,409.5 1181.8,478.5" fill="none" stroke="#92a3a2" stroke-width="1"/>
<polyline points="1195.6,409.5 1195.6,478.5" fill="none" stroke="#92a3a2" stroke-width="1"/>
<polyline points="1209.4,409.5 1209.4,478.5" fill="none" stroke="#92a3a2" stroke-width="1"/>
<polyline points="1223.2,409.5 1223.2,478.5" fill="none" stroke="#92a3a2" stroke-width="1"/>
<polyline points="1237.0,409.5 1237.0,478.5" fill="none" stroke="#92a3a2" stroke-width="1"/>
<rect x="1066.8" y="437.1" width="174.79999999999998" height="13.799999999999999" fill="#8ca5a6" stroke="#243b40" stroke-width="1"/>
<rect x="1057.6" y="487.7" width="96.6" height="23.0" fill="#c9d1ce" stroke="#243b40" stroke-width="1"/>
<circle cx="1345.1" cy="430.2" r="20.7" fill="#9bc5be" stroke="#243b40" stroke-width="1"/>
<circle cx="1345.1" cy="430.2" r="17.25" fill="#9bc5be" stroke="#243b40" stroke-width="1"/>
<polyline points="1250.8,444.0 1317.5,444.0 1317.5,430.2 1324.4,430.2" fill="none" stroke="#408b82" stroke-width="3"/>
<circle cx="1345.1" cy="494.6" r="20.7" fill="#9bc5be" stroke="#243b40" stroke-width="1"/>
<circle cx="1345.1" cy="494.6" r="17.25" fill="#9bc5be" stroke="#243b40" stroke-width="1"/>
<polyline points="1250.8,444.0 1317.5,444.0 1317.5,494.6 1324.4,494.6" fill="none" stroke="#408b82" stroke-width="3"/>
<polyline points="1250.8,444.0 1317.5,444.0 1317.5,462.4 1427.9,462.4" fill="none" stroke="#408b82" stroke-width="2"/>
<polyline points="1250.8,448.6 1317.5,448.6 1317.5,467.0 1427.9,467.0" fill="none" stroke="#408b82" stroke-width="2"/>
<rect x="1030.0" y="377.3" width="386.4" height="18.4" fill="#dfe0d8" stroke="#dfe0d8" stroke-width="1"/>
<polyline points="1030.0,386.5 1036.9,386.5" fill="none" stroke="#ad5c45" stroke-width="1"/>
<polyline points="1043.8,386.5 1050.7,386.5" fill="none" stroke="#ad5c45" stroke-width="1"/>
<polyline points="1057.6,386.5 1064.5,386.5" fill="none" stroke="#ad5c45" stroke-width="1"/>
<polyline points="1071.4,386.5 1078.3,386.5" fill="none" stroke="#ad5c45" stroke-width="1"/>
<polyline points="1085.2,386.5 1092.1,386.5" fill="none" stroke="#ad5c45" stroke-width="1"/>
<polyline points="1099.0,386.5 1105.9,386.5" fill="none" stroke="#ad5c45" stroke-width="1"/>
<polyline points="1112.8,386.5 1119.7,386.5" fill="none" stroke="#ad5c45" stroke-width="1"/>
<polyline points="1126.6,386.5 1133.5,386.5" fill="none" stroke="#ad5c45" stroke-width="1"/>
<polyline points="1140.4,386.5 1147.3,386.5" fill="none" stroke="#ad5c45" stroke-width="1"/>
<polyline points="1154.2,386.5 1161.1,386.5" fill="none" stroke="#ad5c45" stroke-width="1"/>
<polyline points="1168.0,386.5 1174.9,386.5" fill="none" stroke="#ad5c45" stroke-width="1"/>
<polyline points="1181.8,386.5 1188.7,386.5" fill="none" stroke="#ad5c45" stroke-width="1"/>
<polyline points="1195.6,386.5 1202.5,386.5" fill="none" stroke="#ad5c45" stroke-width="1"/>
<polyline points="1209.4,386.5 1216.3,386.5" fill="none" stroke="#ad5c45" stroke-width="1"/>
<polyline points="1223.2,386.5 1230.1,386.5" fill="none" stroke="#ad5c45" stroke-width="1"/>
<polyline points="1237.0,386.5 1243.9,386.5" fill="none" stroke="#ad5c45" stroke-width="1"/>
<polyline points="1250.8,386.5 1257.7,386.5" fill="none" stroke="#ad5c45" stroke-width="1"/>
<polyline points="1264.6,386.5 1271.5,386.5" fill="none" stroke="#ad5c45" stroke-width="1"/>
<polyline points="1278.4,386.5 1285.3,386.5" fill="none" stroke="#ad5c45" stroke-width="1"/>
<polyline points="1292.2,386.5 1299.1,386.5" fill="none" stroke="#ad5c45" stroke-width="1"/>
<polyline points="1306.0,386.5 1312.9,386.5" fill="none" stroke="#ad5c45" stroke-width="1"/>
<polyline points="1319.8,386.5 1326.7,386.5" fill="none" stroke="#ad5c45" stroke-width="1"/>
<polyline points="1333.6,386.5 1340.5,386.5" fill="none" stroke="#ad5c45" stroke-width="1"/>
<polyline points="1347.4,386.5 1354.3,386.5" fill="none" stroke="#ad5c45" stroke-width="1"/>
<polyline points="1361.2,386.5 1368.1,386.5" fill="none" stroke="#ad5c45" stroke-width="1"/>
<polyline points="1375.0,386.5 1381.9,386.5" fill="none" stroke="#ad5c45" stroke-width="1"/>
<polyline points="1388.8,386.5 1395.7,386.5" fill="none" stroke="#ad5c45" stroke-width="1"/>
<polyline points="1402.6,386.5 1409.5,386.5" fill="none" stroke="#ad5c45" stroke-width="1"/>
<rect x="1016.2" y="315.2" width="36.8" height="18.4" fill="#dfe0d8" stroke="#dfe0d8" stroke-width="1"/>
<text x="1030" y="624.76" font-family="Segoe UI,DejaVu Sans,sans-serif" font-size="18" font-weight="400" fill="#243b40">Receiving yard and thermal works</text>
<text x="1030" y="654.76" font-family="Segoe UI,DejaVu Sans,sans-serif" font-size="18" font-weight="400" fill="#243b40">have separate access corridors.</text>
<polyline points="50,706 1450,706" fill="none" stroke="#b7bdb3" stroke-width="1"/>
<text x="50" y="743.76" font-family="Segoe UI,DejaVu Sans,sans-serif" font-size="18" font-weight="400" fill="#243b40">Amber: switchyard equipment    Grey: buildings    Teal: hot-water systems    Plans are not in-game screenshots.</text>
</svg>
